HIERARCHY
ROOT Hips
{
	OFFSET 0.000000 0.000000 0.000000
	CHANNELS 6 Xposition Yposition Zposition Zrotation Yrotation Xrotation 
	JOINT LowerBack
	{
		OFFSET 0.000000 0.000000 0.000000
		CHANNELS 3 Zrotation Yrotation Xrotation
		JOINT Spine
		{
			OFFSET 0.028270 2.035590 -0.193380
			CHANNELS 3 Zrotation Yrotation Xrotation
			JOINT Spine1
			{
				OFFSET 0.056720 2.048850 -0.042750
				CHANNELS 3 Zrotation Yrotation Xrotation
				JOINT Neck
				{
					OFFSET 0.000000 0.000000 0.000000
					CHANNELS 3 Zrotation Yrotation Xrotation
					JOINT Neck1
					{
						OFFSET -0.054170 1.746240 0.172020
						CHANNELS 3 Zrotation Yrotation Xrotation
						JOINT Head
						{
							OFFSET 0.104070 1.761360 -0.123970
							CHANNELS 3 Zrotation Yrotation Xrotation
							End Site
							{
								OFFSET 0.000000 0.000000 0.000000
							}
						}
					}
				}
				JOINT LeftShoulder
				{
					OFFSET 0.000000 0.000000 0.000000
					CHANNELS 3 Zrotation Yrotation Xrotation
					JOINT LeftArm
					{
						OFFSET 3.362410 1.200890 -0.311210
						CHANNELS 3 Zrotation Yrotation Xrotation
						JOINT LeftForeArm
						{
							OFFSET 4.983000 -0.000000 -0.000000
							CHANNELS 3 Zrotation Yrotation Xrotation
							JOINT LeftHand
							{
								OFFSET 3.483560 -0.000000 -0.000000
								CHANNELS 3 Zrotation Yrotation Xrotation
								JOINT LeftFingerBase
								{
									OFFSET 0.000000 0.000000 0.000000
									CHANNELS 3 Zrotation Yrotation Xrotation
									JOINT LeftHandIndex1
									{
										OFFSET 0.715260 -0.000000 -0.000000
										CHANNELS 3 Zrotation Yrotation Xrotation
										End Site
										{
											OFFSET 0.000000 0.000000 0.000000
										}
									}
								}
								JOINT LThumb
								{
									OFFSET 0.000000 0.000000 0.000000
									CHANNELS 3 Zrotation Yrotation Xrotation
									End Site
									{
										OFFSET 0.000000 0.000000 0.000000
									}
								}
							}
						}
					}
				}
				JOINT RightShoulder
				{
					OFFSET 0.000000 0.000000 0.000000
					CHANNELS 3 Zrotation Yrotation Xrotation
					JOINT RightArm
					{
						OFFSET -3.136600 1.374050 -0.404650
						CHANNELS 3 Zrotation Yrotation Xrotation
						JOINT RightForeArm
						{
							OFFSET -5.241900 -0.000000 -0.000000
							CHANNELS 3 Zrotation Yrotation Xrotation
							JOINT RightHand
							{
								OFFSET -3.444170 -0.000000 -0.000000
								CHANNELS 3 Zrotation Yrotation Xrotation
								JOINT RightFingerBase
								{
									OFFSET 0.000000 0.000000 0.000000
									CHANNELS 3 Zrotation Yrotation Xrotation
									JOINT RightHandIndex1
									{
										OFFSET -0.622530 -0.000000 -0.000000
										CHANNELS 3 Zrotation Yrotation Xrotation
										End Site
										{
											OFFSET 0.000000 0.000000 0.000000
										}
									}
								}
								JOINT RThumb
								{
									OFFSET 0.000000 0.000000 0.000000
									CHANNELS 3 Zrotation Yrotation Xrotation
									End Site
									{
										OFFSET 0.000000 0.000000 0.000000
									}
								}
							}
						}
					}
				}
			}
		}
	}
}
}
MOTION
Frames: 15
Frame Time: 0.008333
16.487470 20.807596 1.696759 19.682070 -76.586597 -8.008013 -4.618321 -1.448297 -12.332573 -1.786794 -1.399064 -4.671524 -6.266379 -1.431603 1.130942 11.186461 -9.450794 -3.425991 -1.227768 -0.162602 1.242076 0.000000 0.000000 0.000000 13.087720 11.159144 -5.526025 -34.347741 -45.564737 -22.923411 177.739334 -67.682388 179.599560 26.640049 -32.379569 -8.384993 -0.319375 1.539467 -0.000000 0.000000 0.000000 0.000000 0.000000 0.000000 0.000000 -3.317776 -10.342388 -2.538480 49.189385 16.882494 -48.140340 -178.077031 46.149389 179.773568 -26.912758 35.979269 -9.454298 0.508903 -1.475894 0.000000 0.000000 0.000000 0.000000 0.000000 0.000000 0.000000 
16.370336 20.890932 1.690104 19.255149 -76.834669 -7.965017 -4.526329 -1.425588 -12.196744 -1.739756 -1.387129 -4.605901 -6.049355 -1.433796 1.284630 11.045020 -9.696716 -3.519683 -1.110900 -0.153183 1.214640 0.000000 0.000000 0.000000 13.375750 11.995481 -5.812774 -33.430489 -46.036576 -26.124736 177.475979 -65.596347 179.592102 27.377654 -33.258198 -8.873841 -0.337254 1.572756 0.000000 0.000000 0.000000 0.000000 0.000000 0.000000 0.000000 -4.023877 -11.174051 -2.529712 47.906967 17.958803 -50.895003 -178.010180 43.974262 179.776259 -28.986065 37.219374 -10.595751 0.582078 -1.536887 -0.000000 0.000000 0.000000 0.000000 0.000000 0.000000 0.000000 
16.251675 20.966883 1.686141 18.676879 -77.123554 -7.727023 -4.366365 -1.400635 -12.101162 -1.672944 -1.379284 -4.549020 -5.813500 -1.440916 1.436014 10.869623 -9.969723 -3.621280 -1.005412 -0.144380 1.185088 0.000000 0.000000 0.000000 13.590833 12.869720 -6.064486 -32.630593 -46.433024 -29.249366 177.234316 -63.574616 179.587375 28.180523 -33.972634 -9.354243 -0.360952 1.600418 -0.000000 0.000000 0.000000 0.000000 0.000000 0.000000 0.000000 -4.626627 -12.029603 -2.541247 46.544959 19.080873 -53.555956 -177.966348 42.099234 179.781631 -31.018517 38.278977 -11.724547 0.653926 -1.588980 -0.000000 0.000000 0.000000 0.000000 0.000000 0.000000 0.000000 
16.130658 21.035771 1.685355 17.918035 -77.432239 -7.261723 -4.140456 -1.374382 -12.059794 -1.587849 -1.376646 -4.504196 -5.566795 -1.453120 1.580640 10.666875 -10.254383 -3.722262 -0.914803 -0.136567 1.155789 0.000000 0.000000 0.000000 13.717387 13.754404 -6.276580 -31.919014 -46.768730 -32.268891 177.020799 -61.624695 179.585254 29.046912 -34.549124 -9.830187 -0.390271 1.623338 -0.000000 0.000000 0.000000 0.000000 0.000000 0.000000 0.000000 -5.112833 -12.882085 -2.576937 45.093693 20.206089 -56.070800 -177.942802 40.515741 179.789330 -32.966821 39.217869 -12.829185 0.721935 -1.632917 -0.000000 0.000000 0.000000 0.000000 0.000000 0.000000 0.000000 
16.006837 21.098398 1.688110 16.950406 -77.735399 -6.543542 -3.854393 -1.348035 -12.081391 -1.486966 -1.380182 -4.473919 -5.317382 -1.470518 1.714061 10.444907 -10.534881 -3.815856 -0.841650 -0.130036 1.128624 0.000000 0.000000 0.000000 13.748232 14.619142 -6.447332 -31.270739 -47.057191 -35.158013 176.840135 -59.753278 179.585581 29.967266 -35.015479 -10.304175 -0.424665 1.642467 -0.000000 0.000000 0.000000 0.000000 0.000000 0.000000 0.000000 -5.476274 -13.704476 -2.637368 43.547880 21.289416 -58.395268 -177.936087 39.208604 179.798910 -34.792144 40.081366 -13.898859 0.783980 -1.669758 -0.000000 0.000000 0.000000 0.000000 0.000000 0.000000 0.000000 
15.879806 21.155210 1.694495 15.762733 -78.006410 -5.561205 -3.518013 -1.322836 -12.170021 -1.373724 -1.390427 -4.459768 -5.072769 -1.492991 1.833078 10.212884 -10.796518 -3.897730 -0.787385 -0.124968 1.104806 0.000000 0.000000 0.000000 13.686878 15.433029 -6.577441 -30.669859 -47.308464 -37.892379 176.694814 -57.960499 179.588172 30.920864 -35.390994 -10.772498 -0.463365 1.658736 -0.000000 0.000000 0.000000 0.000000 0.000000 0.000000 0.000000 -5.718682 -14.472285 -2.719682 41.908390 22.283778 -60.498150 -177.942896 38.158935 179.809840 -36.455307 40.893283 -14.916965 0.838475 -1.700580 -0.000000 0.000000 0.000000 0.000000 0.000000 0.000000 0.000000 
15.749570 21.206639 1.704181 14.371519 -78.219279 -4.333529 -3.146478 -1.300221 -12.323640 -1.252615 -1.407495 -4.462253 -4.839197 -1.520278 1.935163 9.980193 -11.026760 -3.965628 -0.751954 -0.121409 1.084967 0.000000 0.000000 0.000000 13.548899 16.166503 -6.669342 -30.111237 -47.524396 -40.449362 176.585306 -56.245808 179.592796 31.878347 -35.687473 -11.225969 -0.505358 1.672905 -0.000000 0.000000 0.000000 0.000000 0.000000 0.000000 0.000000 -5.850175 -15.164314 -2.818504 40.186600 23.143235 -62.360321 -177.959773 37.347324 179.821478 -37.918495 41.656472 -15.859997 0.884427 -1.726255 -0.000000 0.000000 0.000000 0.000000 0.000000 0.000000 0.000000 
15.616334 21.252448 1.716458 12.833795 -78.352608 -2.920085 -2.761671 -1.281842 -12.535071 -1.129467 -1.430966 -4.480567 -4.621587 -1.551902 2.019749 9.756959 -11.221009 -4.020165 -0.733840 -0.119255 1.068935 0.000000 0.000000 0.000000 13.359821 16.796929 -6.727234 -29.601305 -47.702318 -42.806136 176.510199 -54.608635 179.599157 32.811662 -35.924112 -11.658193 -0.549447 1.685778 -0.000000 0.000000 0.000000 0.000000 0.000000 0.000000 0.000000 -5.885222 -15.769946 -2.927523 38.406489 23.833554 -63.969321 -177.983678 36.754879 179.833118 -39.146616 42.359428 -16.698943 0.921382 -1.747424 -0.000000 0.000000 0.000000 0.000000 0.000000 0.000000 0.000000 
15.480595 21.292410 1.730240 11.243475 -78.392434 -1.419677 -2.388738 -1.269046 -12.790809 -1.010633 -1.459634 -4.512533 -4.423105 -1.586892 2.087171 9.552488 -11.379912 -4.063577 -0.730308 -0.118289 1.056075 0.000000 0.000000 0.000000 13.153094 17.307640 -6.755596 -29.156819 -47.831962 -44.940420 176.466304 -53.046274 179.606893 33.696827 -36.119816 -12.064585 -0.594436 1.698119 -0.000000 0.000000 0.000000 0.000000 0.000000 0.000000 0.000000 -5.842713 -16.285598 -3.039687 36.604492 24.330549 -65.320213 -178.011840 36.362926 179.844063 -40.114804 42.983026 -17.405204 0.949428 -1.764467 -0.000000 0.000000 0.000000 0.000000 0.000000 0.000000 0.000000 
15.343064 21.326331 1.744260 9.711265 -78.332532 0.050311 -2.054589 -1.263441 -13.073925 -0.902556 -1.492290 -4.555053 -4.245118 -1.624557 2.138647 9.374390 -11.505817 -4.098774 -0.737743 -0.118221 1.045566 0.000000 0.000000 0.000000 12.968184 17.686618 -6.758420 -28.806023 -47.895999 -46.829158 176.448980 -51.555311 179.615576 34.503541 -36.277403 -12.433262 -0.639078 1.710384 -0.000000 0.000000 0.000000 0.000000 0.000000 0.000000 0.000000 -5.746419 -16.710764 -3.147397 34.830170 24.615238 -66.412747 -178.041262 36.148886 179.853688 -40.815312 43.505291 -17.956667 0.969217 -1.777605 -0.000000 0.000000 0.000000 0.000000 0.000000 0.000000 0.000000 
15.204591 21.353704 1.757305 8.349786 -78.191233 1.363607 -1.777719 -1.262509 -13.356841 -0.810270 -1.523868 -4.601977 -4.089267 -1.660190 2.177743 9.229743 -11.625923 -4.132568 -0.752585 -0.118691 1.035447 0.000000 0.000000 0.000000 12.820685 17.952112 -6.742337 -28.558346 -47.903509 -48.458569 176.453998 -50.142655 179.624849 35.265384 -36.478507 -12.804639 -0.682491 1.724106 -0.000000 0.000000 0.000000 0.000000 0.000000 0.000000 0.000000 -5.603581 -17.075187 -3.248758 33.126010 24.734004 -67.240472 -178.072588 36.099432 179.861639 -41.245680 43.928510 -18.345234 0.980971 -1.787171 -0.000000 0.000000 0.000000 0.000000 0.000000 0.000000 0.000000 
15.065944 21.374227 1.768378 7.220267 -77.975759 2.451076 -1.572255 -1.267455 -13.620301 -0.736958 -1.553765 -4.649513 -3.954378 -1.693754 2.205471 9.119143 -11.732641 -4.165980 -0.771165 -0.119431 1.025427 0.000000 0.000000 0.000000 12.744723 18.097099 -6.708124 -28.447969 -47.826663 -49.808060 176.476172 -48.802209 179.634266 35.940098 -36.685407 -13.149228 -0.723671 1.739092 -0.000000 0.000000 0.000000 0.000000 0.000000 0.000000 0.000000 -5.445599 -17.369341 -3.335582 31.553596 24.666731 -67.818066 -178.102169 36.182627 179.867664 -41.446831 44.240754 -18.579097 0.986288 -1.793244 -0.000000 0.000000 0.000000 0.000000 0.000000 0.000000 0.000000 
14.928185 21.387919 1.776840 6.347942 -77.713273 3.271818 -1.438729 -1.275742 -13.839894 -0.683319 -1.578616 -4.691766 -3.840485 -1.722032 2.225318 9.042610 -11.841963 -4.203819 -0.790648 -0.120162 1.014110 0.000000 0.000000 0.000000 12.740918 18.146124 -6.659941 -28.479893 -47.673665 -50.868441 176.511777 -47.541441 179.643514 36.545564 -36.937749 -13.488437 -0.761932 1.756184 -0.000000 0.000000 0.000000 0.000000 0.000000 0.000000 0.000000 -5.283620 -17.613251 -3.406786 30.156829 24.461586 -68.149843 -178.130591 36.372452 179.871827 -41.457743 44.460115 -18.681560 0.986110 -1.796387 -0.000000 0.000000 0.000000 0.000000 0.000000 0.000000 0.000000 
14.792074 21.394802 1.782426 5.715804 -77.430136 3.831697 -1.368528 -1.284834 -13.998166 -0.647905 -1.596192 -4.724244 -3.747369 -1.742749 2.240340 8.996728 -11.959510 -4.248768 -0.809092 -0.120698 1.000705 0.000000 0.000000 0.000000 12.803141 18.122285 -6.600536 -28.653597 -47.451990 -51.634455 176.557766 -46.364541 179.652324 37.085862 -37.248644 -13.828871 -0.796751 1.775841 -0.000000 0.000000 0.000000 0.000000 0.000000 0.000000 0.000000 -5.130040 -17.816577 -3.461709 28.973997 24.158128 -68.247513 -178.158104 36.641752 179.874335 -41.327861 44.610460 -18.685318 0.981486 -1.797202 -0.000000 0.000000 0.000000 0.000000 0.000000 0.000000 0.000000 
14.658340 21.395212 1.785125 5.284608 -77.152140 4.160547 -1.346907 -1.292304 -14.083411 -0.627864 -1.605218 -4.743564 -3.674944 -1.754399 2.253271 8.976839 -12.087568 -4.302507 -0.825527 -0.120941 0.984711 0.000000 0.000000 0.000000 12.915437 18.051553 -6.532589 -28.956552 -47.176377 -52.107871 176.612258 -45.279173 179.660502 37.561882 -37.626416 -14.174526 -0.827631 1.798371 -0.000000 0.000000 0.000000 0.000000 0.000000 0.000000 0.000000 -4.992196 -17.986904 -3.501515 28.030026 23.802050 -68.124952 -178.185634 36.963145 179.875513 -41.104166 44.720882 -18.625476 0.973393 -1.796486 -0.000000 0.000000 0.000000 0.000000 0.000000 0.000000 0.000000 
